<?xml version="1.0" standalone="no"?>
<!DOCTYPE svg PUBLIC "-//W3C//DTD SVG 20010904//EN"
 "http://www.w3.org/TR/2001/REC-SVG-20010904/DTD/svg10.dtd">
<svg version="1.0" xmlns="http://www.w3.org/2000/svg"
 width="512.000000pt" height="512.000000pt" viewBox="0 0 512.000000 512.000000"
 preserveAspectRatio="xMidYMid meet">
<metadata>
Created by potrace 1.14, written by Peter Selinger 2001-2017
</metadata>
<g transform="translate(0.000000,512.000000) scale(0.100000,-0.100000)"
fill="#000000" stroke="none">
<path d="M545 5101 c-48 -22 -69 -44 -90 -94 -13 -32 -15 -300 -15 -2447 0
-2147 2 -2415 15 -2447 21 -50 42 -72 90 -94 38 -18 118 -19 1966 -19 2133 0
1985 -5 2067 66 24 20 55 59 70 88 l27 51 3 2335 c3 2647 11 2403 -82 2495
-93 93 101 85 -2085 85 -1848 0 -1928 -1 -1966 -19z m435 -561 l0 -430 -60 0
c-51 0 -65 -4 -85 -25 -30 -30 -32 -64 -4 -99 18 -23 27 -26 85 -26 l64 0 0
-660 0 -660 -50 0 c-89 0 -132 -40 -116 -105 8 -33 54 -55 116 -55 l50 0 0
-660 0 -660 -64 0 c-58 0 -67 -3 -85 -26 -27 -34 -27 -64 0 -98 18 -23 27 -26
85 -26 l64 0 0 -430 0 -430 -183 0 c-129 0 -187 4 -195 12 -17 17 -17 4779 0
4796 8 8 66 12 195 12 l183 0 0 -430z m3480 412 c20 -10 42 -32 52 -52 17 -33
18 -166 18 -2340 0 -2174 -1 -2307 -18 -2340 -10 -20 -32 -42 -52 -52 -33 -17
-134 -18 -1682 -18 l-1648 0 0 430 0 430 62 0 c50 0 66 4 85 22 30 28 30 74 1
105 -18 19 -32 23 -85 23 l-63 0 0 659 0 659 66 4 c76 5 104 27 104 83 0 48
-29 68 -106 73 l-64 4 2 657 3 656 60 3 c73 4 105 28 105 78 0 49 -37 74 -111
74 l-59 0 0 430 0 430 1648 0 c1548 0 1649 -1 1682 -18z"/>
<path d="M2470 4549 c-63 -12 -143 -46 -224 -93 -293 -174 -452 -541 -407
-944 44 -404 215 -818 485 -1177 83 -110 255 -285 351 -357 189 -141 432 -228
639 -228 258 0 501 116 591 282 47 86 25 181 -71 305 -61 79 -249 269 -303
306 -96 66 -193 82 -301 51 -95 -27 -105 -27 -151 -3 -56 28 -170 138 -218
209 -127 188 -201 393 -201 552 0 105 11 129 75 162 71 37 132 96 157 154 40
90 32 287 -22 520 -34 146 -95 231 -183 257 -55 16 -146 18 -217 4z m205 -173
c31 -39 53 -117 75 -268 38 -257 25 -304 -102 -369 -108 -55 -144 -141 -135
-324 6 -133 37 -245 107 -392 71 -149 131 -237 234 -339 150 -150 260 -191
384 -144 67 26 125 25 178 -1 50 -24 262 -238 316 -320 52 -79 55 -97 20 -145
-70 -96 -260 -173 -428 -174 -141 0 -333 58 -477 144 -270 162 -568 555 -727
961 -122 314 -165 639 -111 860 26 110 94 252 153 321 119 139 293 228 432
221 50 -3 62 -8 81 -31z"/>
<path d="M2121 1244 c-28 -35 -26 -69 4 -99 l24 -25 716 0 716 0 24 25 c32 31
33 74 2 103 l-23 22 -721 0 -722 0 -20 -26z"/>
<path d="M1859 851 c-35 -36 -37 -61 -5 -98 l24 -28 989 -2 c1061 -3 1022 -5
1052 48 19 33 1 81 -35 98 -18 8 -299 11 -1010 11 l-986 0 -29 -29z"/>
</g>
</svg>
